<?xml version="1.0" encoding="UTF-8" standalone="no"?>
<!-- Created with Inkscape (http://www.inkscape.org/) -->

<svg
   width="127.99999"
   height="127.99999"
   viewBox="0 0 33.866665 33.866665"
   version="1.1"
   id="svg421"
   xmlns="http://www.w3.org/2000/svg"
   xmlns:svg="http://www.w3.org/2000/svg">
  <defs
     id="defs418" />
  <g
     id="layer1"
     transform="translate(-92.091976,-86.886533)">
    <g
       id="g11526"
       transform="matrix(0.10583333,0,0,0.10583335,-34.296716,-15.010584)"
       style="display:inline">
      <ellipse
         ry="159.99988"
         rx="159.99873"
         cy="1122.8071"
         cx="1354.2227"
         id="ellipse11528"
         style="display:inline;opacity:1;fill:#3498db;fill-opacity:1;fill-rule:nonzero;stroke:none;stroke-width:1;stroke-linecap:square;stroke-miterlimit:4;stroke-dasharray:none;stroke-opacity:1" />
      <path
         id="path11530"
         d="m 1275.1776,983.92536 a 159.99873,159.99988 0 0 0 -80.9537,138.88184 159.99873,159.99988 0 0 0 159.9987,159.9998 159.99873,159.99988 0 0 0 159.9987,-159.9998 159.99873,159.99988 0 0 0 -80.2268,-138.53434 c -88.63,20.81644 -146.3927,1.93916 -158.8169,-0.3475 z"
         style="display:inline;opacity:0.2;fill:#2b0022;fill-opacity:1;fill-rule:nonzero;stroke:none;stroke-width:1;stroke-linecap:square;stroke-miterlimit:4;stroke-dasharray:none;stroke-opacity:1" />
      <path
         id="path11532"
         d="m 1238.5285,1014.9904 c -0.8107,0 -1.5444,0.01 -2.2781,0.017 a 159.99873,159.99988 0 0 0 -42.0265,107.8 159.99873,159.99988 0 0 0 159.9987,159.9998 159.99873,159.99988 0 0 0 159.9987,-159.9998 159.99873,159.99988 0 0 0 -8.0624,-49.5169 c -24.2763,-1.2027 -61.697,7.2769 -61.697,7.2769 -107.7991,-58.555 -178.6456,-65.5257 -205.9334,-65.5768 z"
         style="display:inline;opacity:0.2;fill:#2b0022;fill-opacity:1;fill-rule:nonzero;stroke:none;stroke-width:1;stroke-linecap:square;stroke-miterlimit:4;stroke-dasharray:none;stroke-opacity:1" />
      <path
         id="path11534"
         d="m 1242.8616,1077.8528 c -17.4295,-0.2975 -42.741,23.7651 -47.8052,28.7606 -0.551,5.3804 -0.8289,10.7852 -0.8325,16.1938 0,42.4346 16.8569,83.1311 46.8625,113.137 30.0056,30.0058 70.7019,46.8628 113.1362,46.8628 42.4343,0 83.1331,-16.857 113.1387,-46.8628 30.0056,-30.0059 46.8626,-70.7024 46.8626,-113.137 -0.024,-0.8562 -0.054,-1.712 -0.091,-2.5676 l -69.6732,-39.6724 c -117.2091,31.6783 -184.0606,84.7255 -184.7098,26.5205 -0.2417,-21.6717 -7.3919,-29.0729 -16.888,-29.2349 z"
         style="display:inline;opacity:0.2;fill:#2b0022;fill-opacity:1;fill-rule:nonzero;stroke:none;stroke-width:1;stroke-linecap:square;stroke-miterlimit:4;stroke-dasharray:none;stroke-opacity:1" />
      <path
         id="path11536"
         d="m 1424.2233,1153.4209 c -27.5763,-0.075 -63.1673,8.4776 -107.7604,34.6662 -38.9296,22.8625 -66.4444,33.0978 -86.3143,35.6087 30.3581,37.3678 75.929,59.0787 124.074,59.1112 64.1217,-0.01 122.0444,-38.3001 147.1751,-97.2924 -1.0935,-0.3611 -24.5286,-31.9503 -77.1744,-32.0937 z"
         style="display:inline;opacity:0.2;fill:#2b0022;fill-opacity:1;fill-rule:nonzero;stroke:none;stroke-width:1;stroke-linecap:square;stroke-miterlimit:4;stroke-dasharray:none;stroke-opacity:1" />
      <path
         id="path11538"
         d="m 1261.5617,1160.8377 a 7.9999366,7.999994 0 0 0 -8,8.0001 7.9999366,7.999994 0 0 0 8,7.9999 7.9999366,7.999994 0 0 0 7.9999,-7.9999 7.9999366,7.999994 0 0 0 -7.9999,-8.0001 z m 2.2399,2.48 a 1.5999873,1.5999988 0 0 1 1.6,1.6001 1.5999873,1.5999988 0 0 1 -1.6,1.6 1.5999873,1.5999988 0 0 1 -1.6,-1.6 1.5999873,1.5999988 0 0 1 1.6,-1.6001 z"
         style="display:inline;opacity:1;fill:#303e6e;fill-opacity:1;fill-rule:nonzero;stroke:none;stroke-width:1;stroke-linecap:square;stroke-miterlimit:4;stroke-dasharray:none;stroke-opacity:1" />
      <ellipse
         ry="4.7999964"
         rx="4.799962"
         cy="1054.1528"
         cx="1321.135"
         id="ellipse11540"
         style="display:inline;opacity:1;fill:#337ab6;fill-opacity:1;fill-rule:nonzero;stroke:none;stroke-width:1;stroke-linecap:square;stroke-miterlimit:4;stroke-dasharray:none;stroke-opacity:1" />
      <ellipse
         ry="3.1999974"
         rx="3.1999745"
         cy="1073.16"
         cx="1276.333"
         id="ellipse11542"
         style="display:inline;opacity:1;fill:#314e81;fill-opacity:1;fill-rule:nonzero;stroke:none;stroke-width:1;stroke-linecap:square;stroke-miterlimit:4;stroke-dasharray:none;stroke-opacity:1" />
      <ellipse
         ry="3.1999974"
         rx="3.1999745"
         cy="1174.7732"
         cx="1394.431"
         id="ellipse11544"
         style="display:inline;opacity:1;fill:#314e81;fill-opacity:1;fill-rule:nonzero;stroke:none;stroke-width:1;stroke-linecap:square;stroke-miterlimit:4;stroke-dasharray:none;stroke-opacity:1" />
      <ellipse
         ry="3.1999974"
         rx="3.1999745"
         cy="1118.2046"
         cx="1355.9648"
         id="ellipse11546"
         style="display:inline;opacity:1;fill:#326299;fill-opacity:1;fill-rule:nonzero;stroke:none;stroke-width:1;stroke-linecap:square;stroke-miterlimit:4;stroke-dasharray:none;stroke-opacity:1" />
      <ellipse
         ry="3.1999974"
         rx="3.1999745"
         cy="984.703"
         cx="1335.8265"
         id="ellipse11548"
         style="display:inline;opacity:1;fill:#337ab6;fill-opacity:1;fill-rule:nonzero;stroke:none;stroke-width:1;stroke-linecap:square;stroke-miterlimit:4;stroke-dasharray:none;stroke-opacity:1" />
      <ellipse
         ry="3.1999974"
         rx="3.1999745"
         cy="1010.9509"
         cx="1428.3719"
         id="ellipse11550"
         style="display:inline;opacity:1;fill:#3498db;fill-opacity:1;fill-rule:nonzero;stroke:none;stroke-width:1;stroke-linecap:square;stroke-miterlimit:4;stroke-dasharray:none;stroke-opacity:1" />
      <ellipse
         ry="1.5999987"
         rx="1.5999873"
         cy="1085.1685"
         cx="1466.8384"
         id="ellipse11552"
         style="display:inline;opacity:0.5;fill:#337ab6;fill-opacity:1;fill-rule:nonzero;stroke:none;stroke-width:1;stroke-linecap:square;stroke-miterlimit:4;stroke-dasharray:none;stroke-opacity:1" />
      <ellipse
         ry="1.5999987"
         rx="1.5999873"
         cy="1072.5637"
         cx="1267.9562"
         id="ellipse11554"
         style="display:inline;opacity:1;fill:#314e81;fill-opacity:1;fill-rule:nonzero;stroke:none;stroke-width:1;stroke-linecap:square;stroke-miterlimit:4;stroke-dasharray:none;stroke-opacity:1" />
      <ellipse
         ry="1.5999987"
         rx="1.5999873"
         cy="1079.5117"
         cx="1273.1492"
         id="ellipse11556"
         style="display:inline;opacity:1;fill:#314e81;fill-opacity:1;fill-rule:nonzero;stroke:none;stroke-width:1;stroke-linecap:square;stroke-miterlimit:4;stroke-dasharray:none;stroke-opacity:1" />
      <ellipse
         ry="1.5999987"
         rx="1.5999873"
         cy="1045.5706"
         cx="1434.0288"
         id="ellipse11558"
         style="display:inline;opacity:1;fill:#326299;fill-opacity:1;fill-rule:nonzero;stroke:none;stroke-width:1;stroke-linecap:square;stroke-miterlimit:4;stroke-dasharray:none;stroke-opacity:1" />
      <ellipse
         ry="1.5999987"
         rx="1.5999873"
         cy="1029.9576"
         cx="1361.6217"
         id="ellipse11560"
         style="display:inline;opacity:1;fill:#326299;fill-opacity:1;fill-rule:nonzero;stroke:none;stroke-width:1;stroke-linecap:square;stroke-miterlimit:4;stroke-dasharray:none;stroke-opacity:1" />
      <ellipse
         ry="1.5999987"
         rx="1.5999873"
         cy="1127.7081"
         cx="1388.5481"
         id="ellipse11562"
         style="display:inline;opacity:1;fill:#326299;fill-opacity:1;fill-rule:nonzero;stroke:none;stroke-width:1;stroke-linecap:square;stroke-miterlimit:4;stroke-dasharray:none;stroke-opacity:1" />
      <ellipse
         ry="1.5999987"
         rx="1.5999873"
         cy="1134.0437"
         cx="1255.2737"
         id="ellipse11564"
         style="display:inline;opacity:1;fill:#326299;fill-opacity:1;fill-rule:nonzero;stroke:none;stroke-width:1;stroke-linecap:square;stroke-miterlimit:4;stroke-dasharray:none;stroke-opacity:1" />
      <ellipse
         ry="1.5999987"
         rx="1.5999873"
         cy="1179.9774"
         cx="1390.3583"
         id="ellipse11566"
         style="display:inline;opacity:1;fill:#314e81;fill-opacity:1;fill-rule:nonzero;stroke:none;stroke-width:1;stroke-linecap:square;stroke-miterlimit:4;stroke-dasharray:none;stroke-opacity:1" />
      <ellipse
         ry="1.5999987"
         rx="1.5999873"
         cy="1216.4075"
         cx="1307.09"
         id="ellipse11568"
         style="display:inline;opacity:1;fill:#314e81;fill-opacity:1;fill-rule:nonzero;stroke:none;stroke-width:1;stroke-linecap:square;stroke-miterlimit:4;stroke-dasharray:none;stroke-opacity:1" />
      <ellipse
         ry="1.5999987"
         rx="1.5999873"
         cy="1230.6627"
         cx="1390.132"
         id="ellipse11570"
         style="display:inline;opacity:1;fill:#314e81;fill-opacity:1;fill-rule:nonzero;stroke:none;stroke-width:1;stroke-linecap:square;stroke-miterlimit:4;stroke-dasharray:none;stroke-opacity:1" />
      <path
         id="path11572"
         d="m 1354.2084,989.84147 c -73.4419,0 -132.9623,59.51553 -132.9623,132.95143 0,73.4359 59.5204,132.9799 132.9623,132.9799 19.8055,0 38.5818,-4.356 55.4673,-12.1227 -10.2642,-0.1717 -19.268,-1.6973 -26.638,-4.4109 -9.3821,2.3598 -19.1998,3.6425 -29.3131,3.6425 -66.24,0 -119.9279,-53.6835 -119.9279,-119.918 0,-66.2346 53.6879,-119.9181 119.9279,-119.9181 42.1698,0 79.2507,21.7642 100.6325,54.666 h 15.8518 c -22.79,-40.5114 -66.203,-67.87013 -116.0005,-67.87013 z m 59.3663,69.91903 c -22.0276,0.5691 -31.1346,9.7039 -31.1346,9.7039 0,0 -12.8479,6.1531 -15.425,27.1196 -2.5771,20.9663 12.9803,35.3528 20.2916,38.8438 0,0 -19.1532,11.8382 -19.1532,23.904 0,12.0658 10.9284,17.7571 17.7587,21.855 0,0 -23.9017,8.7889 -22.9952,24.7007 1.0245,17.9849 20.2631,29.0263 49.4055,29.254 29.1424,0.2276 53.9059,-19.0663 60.2486,-35.0023 6.8722,-17.2672 -1.7361,-27.1481 -3.7852,-29.8799 -2.049,-2.7319 -12.2944,-10.4722 -43.0306,-11.1552 -30.7361,-0.683 -34.3789,-2.2765 -35.5173,-8.4232 -1.1384,-6.1468 8.3102,-10.9276 8.3102,-10.9276 0,0 29.8307,3.189 42.9452,-6.6305 9.7456,-7.2971 28.1605,-22.9227 14.2297,-53.3855 l 13.0913,-0.085 c 0,0 -0.4013,-8.6033 -2.8744,-12.9194 v 0.1138 c -3.472,0.1707 -5.4642,0.2277 -14.9127,-0.5123 -14.0214,-1.2602 -21.5939,-6.631 -37.4526,-6.5735 z m -52.6214,5.2645 c -1.4563,0.035 -2.9874,0.1569 -4.4966,0.3984 -8.0496,1.2879 -20.7519,12.3872 -23.6498,17.2166 0,0 1.9481,-11.5635 1.2238,-14.5416 -0.7244,-2.9781 -0.9677,-2.5043 -0.9677,-2.5043 l -47.1002,8.8502 -1.0246,8.6226 5.6634,0.6829 c 0,0 13.3053,4.2627 13.5467,17.3019 0.2416,13.0392 10e-5,48.69 0,48.69 0,0 -0.1057,11.4724 -0.9107,13.887 -0.805,2.4148 1.2708,6.2722 -18.1286,10.2162 l -0.086,6.8013 h 65.5704 v -7.1428 c 0,0 -16.517,-0.7843 -17.1609,-9.96 0,0 -1.2946,-7.7435 -1.0531,-23.2778 v -30.6483 c -0.2414,-2.6562 3.0075,-20.4657 14.1159,-23.3633 0,0 6.9102,-1.1267 11.9814,2.8173 0,0 3.8646,-15.5217 14.0874,-22.7657 0,0 -5.3011,-1.4333 -11.6114,-1.2806 z m 51.853,6.6306 c 0.4401,-0.018 0.8783,-0.01 1.3376,0 11.6363,0.1911 19.4662,12.9079 19.4662,28.827 0,15.919 -3.9644,28.827 -19.4662,28.827 -11.638,0 -19.4947,-12.908 -19.4947,-28.827 0,-15.4216 4.5141,-28.2603 18.1571,-28.827 z m 55.8658,17.0173 c 3.2366,10.8651 4.9804,22.3734 4.9804,34.2908 0,12.3045 -1.8514,24.169 -5.2934,35.3436 4.0533,1.881 6.1418,3.7111 6.9441,4.7808 0.7352,0.9804 2.2934,2.887 3.6996,5.7199 5.2889,-14.3379 8.1963,-29.8419 8.1963,-46.0151 0,-11.7938 -1.5284,-23.2331 -4.4111,-34.12 z m -50.9992,94.2783 c 0,0 17.1609,0.7968 26.6095,5.1222 9.4485,4.3255 6.318,13.6025 5.7488,16.562 -0.5691,2.9596 -4.7243,9.96 -16.5634,14.9684 -11.8391,5.0085 -29.2842,1.1598 -35.5173,-1.8497 -8.1539,-3.9368 -15.5388,-10.2729 -12.6928,-21.4281 2.8459,-11.1552 15.9656,-13.3179 15.9656,-13.3179 l 16.4496,-0.057 z"
         style="display:inline;fill:#f2f2f2;fill-opacity:1;stroke:none" />
    </g>
  </g>
</svg>
